<svg width="980" height="760" viewBox="0 0 980 760" fill="none" xmlns="http://www.w3.org/2000/svg">
  <defs>
    <pattern id="dollars" width="118" height="62" patternUnits="userSpaceOnUse">
      <rect x="4" y="5" width="110" height="52" rx="9" fill="#9af0b8" stroke="#111" stroke-width="3"/>
      <path d="M18 31 C31 18 48 18 60 31 C72 44 89 44 101 31" stroke="#111" stroke-width="2" opacity=".55"/>
      <text x="59" y="42" text-anchor="middle" font-family="Arial, sans-serif" font-size="34" font-weight="900" fill="#111">$</text>
    </pattern>
  </defs>
  <g stroke="#050505" stroke-width="14" stroke-linecap="round" stroke-linejoin="round">
    <path d="M300 382 C331 246 503 176 675 225 C814 265 867 373 815 489 C765 600 574 638 421 588 C324 557 278 487 300 382Z" fill="url(#dollars)"/>
    <path d="M291 413 C225 397 163 421 116 478 C183 503 241 492 296 446" fill="url(#dollars)"/>
    <path d="M302 360 C254 284 287 203 373 184 C459 164 544 221 538 306 C534 373 457 415 384 401 C345 394 318 378 302 360Z" fill="url(#dollars)"/>
    <path d="M368 185 C336 115 278 69 206 47" />
    <path d="M399 179 C405 105 443 53 510 24" />
    <path d="M513 199 C582 146 627 87 650 24" />
    <path d="M625 235 C703 190 765 129 810 52" />
    <path d="M337 284 C298 246 250 227 190 229" />
    <path d="M407 264 C426 249 449 252 465 270" />
    <path d="M417 590 L381 731" />
    <path d="M562 626 L548 732" />
    <path d="M717 592 L785 716" />
    <path d="M795 526 L892 692" />
  </g>
</svg>
