<svg width="980" height="760" viewBox="0 0 980 760" fill="none" xmlns="http://www.w3.org/2000/svg">
  <defs>
    <linearGradient id="bill" x1="150" y1="110" x2="850" y2="650" gradientUnits="userSpaceOnUse">
      <stop stop-color="#d8ffe9"/>
      <stop offset=".42" stop-color="#5fd79a"/>
      <stop offset="1" stop-color="#0d7d55"/>
    </linearGradient>
    <pattern id="moneyLines" width="72" height="42" patternUnits="userSpaceOnUse">
      <path d="M3 21 C20 2 50 2 69 21 C50 40 20 40 3 21Z" stroke="#073f2e" stroke-width="2" opacity=".32"/>
      <text x="31" y="27" text-anchor="middle" font-family="Arial, sans-serif" font-size="18" font-weight="800" fill="#073f2e" opacity=".34">$</text>
    </pattern>
    <filter id="softShadow" x="-20%" y="-20%" width="140%" height="140%">
      <feDropShadow dx="0" dy="28" stdDeviation="28" flood-color="#00150f" flood-opacity=".45"/>
    </filter>
  </defs>
  <g filter="url(#softShadow)">
    <path d="M332 303 C379 211 515 182 637 217 C759 252 826 342 799 452 C778 537 689 604 554 610 C420 617 311 567 286 476 C270 418 290 354 332 303Z" fill="url(#bill)"/>
    <path d="M332 303 C379 211 515 182 637 217 C759 252 826 342 799 452 C778 537 689 604 554 610 C420 617 311 567 286 476 C270 418 290 354 332 303Z" fill="url(#moneyLines)" opacity=".72"/>
    <path d="M336 303 C385 223 518 195 632 229 C742 262 807 343 783 445 C762 526 680 587 553 594 C429 600 329 553 303 471 C284 410 297 362 336 303Z" stroke="#eafff1" stroke-width="13" opacity=".62"/>
    <path d="M393 257 C382 202 392 154 423 110 C429 177 451 217 500 234" stroke="#124f38" stroke-width="26" stroke-linecap="round"/>
    <path d="M605 231 C661 187 697 138 715 82 C739 147 729 204 682 257" stroke="#124f38" stroke-width="26" stroke-linecap="round"/>
    <path d="M414 113 C378 85 335 72 286 77 C334 107 360 142 365 184" stroke="#124f38" stroke-width="20" stroke-linecap="round"/>
    <path d="M717 83 C758 59 804 53 850 68 C802 90 772 123 760 166" stroke="#124f38" stroke-width="20" stroke-linecap="round"/>
    <path d="M372 184 C344 166 310 161 270 168 C309 188 331 215 337 250" stroke="#124f38" stroke-width="16" stroke-linecap="round"/>
    <path d="M759 167 C790 154 824 155 862 169 C820 183 795 208 784 241" stroke="#124f38" stroke-width="16" stroke-linecap="round"/>
    <path d="M248 420 C198 440 158 484 137 553 C184 536 223 506 260 462" fill="#198a63"/>
    <path d="M769 441 C836 469 883 522 906 599 C849 579 803 540 761 485" fill="#198a63"/>
    <path d="M390 589 L360 713" stroke="#0f6548" stroke-width="32" stroke-linecap="round"/>
    <path d="M520 608 L509 724" stroke="#0f6548" stroke-width="32" stroke-linecap="round"/>
    <path d="M657 593 L701 713" stroke="#0f6548" stroke-width="32" stroke-linecap="round"/>
    <path d="M744 530 L819 688" stroke="#0f6548" stroke-width="30" stroke-linecap="round"/>
    <path d="M255 387 C222 339 235 288 289 267 C343 246 411 280 421 337 C429 384 382 425 326 424 C295 423 271 410 255 387Z" fill="#71dca1"/>
    <path d="M257 392 C234 382 207 383 178 399 C214 419 246 425 278 416" fill="#0f6548"/>
    <path d="M323 309 C331 301 344 302 352 311" stroke="#04271c" stroke-width="10" stroke-linecap="round"/>
    <path d="M249 324 C228 303 196 289 153 285 C181 316 205 339 225 371" stroke="#0f6548" stroke-width="16" stroke-linecap="round"/>
    <path d="M274 267 C244 222 205 190 155 171 C178 226 208 264 253 293" stroke="#0f6548" stroke-width="18" stroke-linecap="round"/>
    <path d="M321 269 C319 220 333 173 363 129 C383 185 383 235 356 281" stroke="#0f6548" stroke-width="18" stroke-linecap="round"/>
    <circle cx="550" cy="410" r="76" fill="#eafff1" opacity=".5"/>
    <text x="550" y="439" text-anchor="middle" font-family="Arial, sans-serif" font-size="92" font-weight="900" fill="#0f6548">$</text>
  </g>
</svg>
