<svg width="1100" height="820" viewBox="-28 -24 1188 888" fill="none" xmlns="http://www.w3.org/2000/svg">
  <defs>
    <pattern id="dollarSkin" width="130" height="70" patternUnits="userSpaceOnUse">
      <rect x="6" y="8" width="118" height="54" rx="9" fill="#9af0b8" stroke="#111" stroke-width="3"/>
      <path d="M20 35 C35 20 53 20 67 35 C81 50 99 50 112 35" stroke="#111" stroke-width="2.4" opacity=".55"/>
      <text x="65" y="47" text-anchor="middle" font-family="Arial, sans-serif" font-size="35" font-weight="900" fill="#111">$</text>
    </pattern>
  </defs>
  <g stroke="#050505" stroke-width="10" stroke-linecap="round" stroke-linejoin="round">
    <path
      d="M94 742
         C103 682 99 622 98 566
         C96 512 94 462 113 411
         C127 374 156 348 197 333
         C232 320 253 296 279 279
         C311 258 355 260 407 265
         C507 275 596 296 700 285
         C752 280 806 276 850 270
         C877 266 891 249 907 217
         C926 179 933 154 922 133
         C952 134 980 120 1000 94
         C1043 42 1087 21 1100 4
         C1077 57 1059 108 1056 165
         C1072 124 1092 104 1115 90
         C1107 141 1092 184 1062 217
         C1086 209 1113 196 1136 170
         C1129 223 1096 256 1044 268
         C1015 275 982 269 957 279
         C946 304 928 331 900 344
         C914 433 930 529 893 598
         C863 654 814 690 760 728
         C720 756 710 775 709 811
         L654 811
         C657 764 662 725 685 690
         C637 706 582 707 531 699
         C491 692 451 687 410 682
         C380 717 334 748 286 775
         C257 791 237 811 231 840
         L176 840
         C181 793 200 762 239 733
         C274 707 316 678 337 647
         C273 626 207 595 158 552
         C153 617 139 682 116 742Z"
      fill="url(#dollarSkin)"/>
    <path d="M943 137 C895 101 865 57 852 6 C891 25 920 58 940 105"/>
    <path d="M1001 96 C991 53 1001 17 1032 -11"/>
    <path d="M1027 216 C1029 172 1047 137 1081 112"/>
    <path d="M936 139 C904 121 878 90 859 48"/>
    <path d="M486 683 C502 725 504 771 493 812 L438 812 C447 774 443 734 427 691"/>
    <path d="M112 739 C83 767 67 795 63 820 L10 820 C20 782 43 755 73 724"/>
    <path d="M921 160 C894 150 869 153 846 170"/>
  </g>
</svg>
