<svg width="520" height="780" viewBox="-28 -16 560 800" fill="none" xmlns="http://www.w3.org/2000/svg">
  <defs>
    <pattern id="quarterSkin" width="74" height="74" patternUnits="userSpaceOnUse">
      <circle cx="37" cy="37" r="28" fill="#d8cf9b" stroke="#111" stroke-width="3"/>
      <circle cx="37" cy="37" r="19" fill="none" stroke="#111" stroke-width="2" opacity=".45"/>
      <text x="37" y="45" text-anchor="middle" font-family="Arial, sans-serif" font-size="21" font-weight="900" fill="#111">25c</text>
    </pattern>
  </defs>
  <path
    d="M175 40
       C187 77 214 91 250 78
       C283 66 309 38 331 28
       C338 67 328 100 299 126
       C286 138 279 155 279 180
       L279 265
       C351 259 416 270 451 315
       C484 357 481 421 452 479
       C475 507 492 552 503 614
       C512 666 521 710 500 720
       C482 729 458 689 441 639
       C426 595 410 558 383 544
       C387 593 366 638 335 682
       C310 716 292 759 264 750
       C239 742 250 698 269 662
       C293 616 306 561 282 523
       C258 508 226 506 200 519
       C178 553 171 611 172 667
       C173 729 169 763 143 764
       C117 765 112 727 116 668
       C121 598 114 543 91 521
       C64 567 50 628 40 690
       C32 740 22 773 4 766
       C-16 758 1 699 10 658
       C21 607 33 558 48 513
       C58 483 72 452 84 433
       C65 396 67 351 82 313
       L83 162
       C64 157 51 143 48 125
       C45 101 57 88 72 78
       C54 50 51 22 60 3
       C92 21 110 47 114 82
       C138 92 158 83 175 40Z"
    fill="url(#quarterSkin)"
    stroke="#050505"
    stroke-width="9"
    stroke-linejoin="round"
    stroke-linecap="round"/>
  <path d="M207 121 C220 111 235 111 248 123" stroke="#050505" stroke-width="8" stroke-linecap="round"/>
</svg>
